# This file uses centimeters as units for non-parametric coordinates.

mtllib rock_2.mtl
g default
v -0.500000 -0.500000 0.500000
v 0.477323 -0.509365 0.476006
v -0.356974 0.535592 0.250391
v 0.367243 0.345596 0.292640
v -0.357553 0.437221 -0.359426
v 0.341264 0.362056 -0.345055
v -0.559300 -0.459595 -0.501489
v 0.506211 -0.497810 -0.510386
v -0.021194 -0.021154 0.452544
v 0.000000 -0.500000 0.500000
v 0.337715 -0.081367 0.318200
v 0.005754 0.515746 0.295569
v -0.459382 -0.002334 0.470260
v 0.004900 0.728415 0.031567
v 0.475134 0.498349 0.005772
v -0.003190 0.515236 -0.461505
v -0.446671 0.521128 -0.008717
v 0.010814 0.023249 -0.581228
v 0.489576 -0.053405 -0.448400
v -0.005947 -0.497424 -0.504252
v -0.448390 0.141802 -0.387454
v -0.005558 -0.498678 0.000311
v 0.510954 -0.498716 -0.000253
v -0.555669 -0.484496 0.002238
v 0.630937 0.002075 -0.022107
v -0.484443 0.035156 0.029027
v -0.248808 -0.250102 0.500155
v -0.494913 -0.250435 0.500662
v -0.250000 -0.500000 0.500000
v -0.009601 -0.253965 0.489841
v -0.234193 -0.005366 0.480580
v -0.203699 0.622794 0.127174
v -0.393692 0.560210 0.091262
v -0.164011 0.560904 0.247758
v 0.004444 0.641399 0.156663
v -0.237375 0.660484 0.017770
v -0.167670 0.269170 -0.412758
v -0.352615 0.288918 -0.341229
v -0.168604 0.460598 -0.414810
v -0.003927 0.261890 -0.521223
v -0.228614 0.102489 -0.434202
v -0.343528 -0.471354 -0.256653
v -0.603526 -0.461417 -0.252673
v -0.300881 -0.474137 -0.507213
v -0.017211 -0.495212 -0.251393
v -0.298051 -0.487441 0.001382
v 0.450616 -0.277916 0.170254
v 0.390759 -0.295117 0.384410
v 0.489295 -0.504421 0.238673
v 0.592380 -0.242068 -0.016131
v 0.463984 -0.043907 0.126159
v -0.610923 -0.136215 -0.208642
v -0.579303 -0.111921 -0.452933
v -0.568767 -0.211326 0.013785
v -0.467543 0.110405 -0.165400
v 0.177102 -0.280107 0.422865
v 0.239887 -0.504177 0.489299
v 0.139591 -0.054763 0.372090
v 0.151623 0.142467 0.293291
v 0.328692 0.105175 0.267745
v 0.193092 0.432223 0.289397
v -0.005980 0.207423 0.352854
v -0.183663 0.233770 0.335703
v -0.369878 0.244400 0.333184
v 0.225460 0.562796 0.152613
v 0.435327 0.437590 0.145954
v 0.246848 0.651407 0.023144
v 0.208605 0.578255 -0.180011
v 0.425946 0.432389 -0.141669
v 0.147215 0.438060 -0.417204
v 0.003219 0.673391 -0.206716
v -0.209125 0.581870 -0.184947
v -0.403553 0.456722 -0.164033
v 0.180993 0.188305 -0.508820
v 0.399052 0.127302 -0.371317
v 0.255329 -0.014536 -0.607458
v 0.280250 -0.238511 -0.604281
v 0.528445 -0.253379 -0.519572
v 0.252276 -0.497443 -0.518889
v -0.012935 -0.228182 -0.553448
v -0.323852 -0.152982 -0.472877
v 0.261179 -0.497900 -0.256751
v 0.528529 -0.496266 -0.253836
v 0.252011 -0.499764 -0.000046
v 0.246826 -0.501311 0.246641
v 0.000000 -0.500000 0.250000
v -0.252284 -0.499371 0.250233
v -0.502029 -0.498971 0.250780
v 0.621565 -0.240349 -0.255982
v 0.637060 -0.015873 -0.205481
v 0.526603 0.184278 -0.153685
v 0.564980 0.243509 0.002959
v 0.460320 0.171417 0.117867
v -0.483948 -0.247108 0.257294
v -0.436503 -0.001275 0.245732
v -0.374792 0.264916 0.147429
v -0.429369 0.264185 0.009130
v -0.393099 0.269733 -0.149851
vt 0.375000 0.000000
vt 0.625000 0.000000
vt 0.375000 0.250000
vt 0.625000 0.250000
vt 0.375000 0.500000
vt 0.625000 0.500000
vt 0.375000 0.750000
vt 0.625000 0.750000
vt 0.375000 1.000000
vt 0.625000 1.000000
vt 0.875000 0.000000
vt 0.875000 0.250000
vt 0.125000 0.000000
vt 0.125000 0.250000
vt 0.500000 0.125000
vt 0.500000 0.000000
vt 0.500000 1.000000
vt 0.625000 0.125000
vt 0.500000 0.250000
vt 0.375000 0.125000
vt 0.500000 0.375000
vt 0.625000 0.375000
vt 0.750000 0.250000
vt 0.500000 0.500000
vt 0.250000 0.250000
vt 0.375000 0.375000
vt 0.500000 0.625000
vt 0.625000 0.625000
vt 0.875000 0.125000
vt 0.500000 0.750000
vt 0.125000 0.125000
vt 0.375000 0.625000
vt 0.500000 0.875000
vt 0.625000 0.875000
vt 0.750000 0.000000
vt 0.500000 1.000000
vt 0.250000 0.000000
vt 0.375000 0.875000
vt 0.750000 0.125000
vt 0.750000 0.000000
vt 0.875000 0.125000
vt 0.750000 0.250000
vt 0.250000 0.125000
vt 0.250000 0.000000
vt 0.250000 0.250000
vt 0.125000 0.125000
vt 0.437500 0.062500
vt 0.375000 0.062500
vt 0.437500 0.000000
vt 0.437500 1.000000
vt 0.500000 0.062500
vt 0.437500 0.125000
vt 0.437500 0.312500
vt 0.312500 0.250000
vt 0.375000 0.312500
vt 0.437500 0.250000
vt 0.500000 0.312500
vt 0.437500 0.375000
vt 0.437500 0.562500
vt 0.125000 0.187500
vt 0.375000 0.562500
vt 0.437500 0.500000
vt 0.500000 0.562500
vt 0.437500 0.625000
vt 0.437500 0.812500
vt 0.187500 0.000000
vt 0.375000 0.812500
vt 0.437500 0.750000
vt 0.500000 0.812500
vt 0.437500 0.875000
vt 0.687500 0.062500
vt 0.625000 0.062500
vt 0.625000 0.937500
vt 0.687500 0.000000
vt 0.750000 0.062500
vt 0.687500 0.125000
vt 0.187500 0.062500
vt 0.125000 0.062500
vt 0.375000 0.687500
vt 0.187500 0.000000
vt 0.250000 0.062500
vt 0.187500 0.125000
vt 0.562500 0.062500
vt 0.562500 0.000000
vt 0.562500 1.000000
vt 0.562500 0.125000
vt 0.562500 0.187500
vt 0.625000 0.187500
vt 0.562500 0.250000
vt 0.500000 0.187500
vt 0.437500 0.187500
vt 0.375000 0.187500
vt 0.562500 0.312500
vt 0.625000 0.312500
vt 0.687500 0.250000
vt 0.562500 0.375000
vt 0.562500 0.437500
vt 0.625000 0.437500
vt 0.812500 0.250000
vt 0.562500 0.500000
vt 0.500000 0.437500
vt 0.437500 0.437500
vt 0.187500 0.250000
vt 0.375000 0.437500
vt 0.562500 0.562500
vt 0.625000 0.562500
vt 0.875000 0.187500
vt 0.562500 0.625000
vt 0.562500 0.687500
vt 0.625000 0.687500
vt 0.875000 0.062500
vt 0.562500 0.750000
vt 0.500000 0.687500
vt 0.437500 0.687500
vt 0.375000 0.687500
vt 0.562500 0.812500
vt 0.625000 0.812500
vt 0.812500 0.000000
vt 0.562500 0.875000
vt 0.562500 0.937500
vt 0.625000 0.937500
vt 0.562500 1.000000
vt 0.500000 0.937500
vt 0.437500 0.937500
vt 0.437500 1.000000
vt 0.312500 0.000000
vt 0.375000 0.937500
vt 0.812500 0.062500
vt 0.812500 0.000000
vt 0.875000 0.062500
vt 0.812500 0.125000
vt 0.812500 0.187500
vt 0.875000 0.187500
vt 0.812500 0.250000
vt 0.750000 0.187500
vt 0.687500 0.187500
vt 0.687500 0.250000
vt 0.312500 0.062500
vt 0.312500 0.000000
vt 0.312500 0.125000
vt 0.312500 0.187500
vt 0.312500 0.250000
vt 0.250000 0.187500
vt 0.187500 0.187500
vt 0.187500 0.250000
vt 0.125000 0.187500
vn -0.020117 0.102893 0.994489
vn -0.020117 0.102893 0.994489
vn -0.020117 0.102893 0.994489
vn -0.020117 0.102893 0.994489
vn -0.466476 0.864474 0.187311
vn -0.466477 0.864474 0.187311
vn -0.466477 0.864474 0.187311
vn -0.466477 0.864474 0.187311
vn -0.224452 0.311233 -0.923448
vn -0.224452 0.311233 -0.923448
vn -0.224452 0.311233 -0.923447
vn -0.224452 0.311233 -0.923448
vn -0.025485 -0.997115 -0.071497
vn -0.025485 -0.997115 -0.071497
vn -0.025485 -0.997115 -0.071497
vn -0.025485 -0.997115 -0.071497
vn 0.883925 0.184209 0.429818
vn 0.883925 0.184209 0.429818
vn 0.883925 0.184209 0.429818
vn 0.883925 0.184209 0.429818
vn -0.872875 0.486544 -0.036932
vn -0.872875 0.486544 -0.036932
vn -0.872875 0.486544 -0.036932
vn -0.872875 0.486544 -0.036932
vn 0.188800 0.186168 0.964207
vn 0.188800 0.186168 0.964207
vn 0.188800 0.186168 0.964207
vn 0.188800 0.186168 0.964207
vn 0.246935 0.307561 0.918928
vn 0.246935 0.307561 0.918928
vn 0.246936 0.307561 0.918928
vn 0.246936 0.307561 0.918928
vn -0.133633 0.227070 0.964667
vn -0.133633 0.227070 0.964667
vn -0.133633 0.227070 0.964667
vn -0.133633 0.227070 0.964667
vn 0.288656 0.684877 0.669045
vn 0.288656 0.684877 0.669045
vn 0.288656 0.684877 0.669045
vn 0.288656 0.684877 0.669045
vn 0.518204 0.742782 -0.423957
vn 0.518204 0.742782 -0.423957
vn 0.518204 0.742782 -0.423957
vn 0.518204 0.742782 -0.423957
vn -0.390857 0.785237 -0.480242
vn -0.390857 0.785237 -0.480242
vn -0.390857 0.785237 -0.480242
vn -0.390857 0.785237 -0.480242
vn 0.286083 0.293194 -0.912246
vn 0.286083 0.293194 -0.912246
vn 0.286083 0.293194 -0.912246
vn 0.286083 0.293194 -0.912246
vn 0.459474 0.207642 -0.863579
vn 0.459474 0.207642 -0.863579
vn 0.459474 0.207642 -0.863579
vn 0.459474 0.207642 -0.863579
vn -0.132057 -0.031637 -0.990737
vn -0.132057 -0.031637 -0.990737
vn -0.132057 -0.031637 -0.990737
vn -0.132057 -0.031637 -0.990737
vn -0.004918 -0.999982 0.003384
vn -0.004918 -0.999982 0.003384
vn -0.004918 -0.999982 0.003384
vn -0.004918 -0.999982 0.003384
vn -0.004359 -0.999875 -0.015173
vn -0.004359 -0.999875 -0.015173
vn -0.004359 -0.999875 -0.015173
vn -0.004359 -0.999875 -0.015173
vn -0.001254 -0.999999 -0.001254
vn -0.001254 -0.999999 -0.001254
vn -0.001254 -0.999998 -0.001254
vn -0.001254 -0.999998 -0.001254
vn 0.944022 -0.318265 0.086770
vn 0.944022 -0.318265 0.086770
vn 0.944022 -0.318265 0.086770
vn 0.944022 -0.318265 0.086770
vn 0.675771 0.529970 -0.512314
vn 0.675771 0.529970 -0.512314
vn 0.675771 0.529970 -0.512314
vn 0.675771 0.529970 -0.512314
vn 0.824954 0.149506 0.545068
vn 0.824954 0.149506 0.545068
vn 0.824954 0.149506 0.545068
vn 0.824954 0.149506 0.545068
vn -0.962620 -0.000182 0.270856
vn -0.962620 -0.000182 0.270856
vn -0.962620 -0.000182 0.270856
vn -0.962620 -0.000182 0.270856
vn -0.962211 0.270873 -0.027887
vn -0.962211 0.270873 -0.027887
vn -0.962211 0.270873 -0.027887
vn -0.962211 0.270873 -0.027887
vn -0.969989 -0.077281 -0.230539
vn -0.969989 -0.077281 -0.230539
vn -0.969989 -0.077281 -0.230539
vn -0.969989 -0.077281 -0.230539
vn 0.001023 -0.001649 0.999998
vn 0.001023 -0.001649 0.999998
vn 0.001023 -0.001649 0.999998
vn 0.001023 -0.001649 0.999998
vn 0.021237 0.020524 0.999564
vn 0.021237 0.020524 0.999564
vn 0.021237 0.020524 0.999564
vn 0.021237 0.020524 0.999564
vn 0.088979 0.117231 0.989110
vn 0.088979 0.117231 0.989110
vn 0.088979 0.117231 0.989111
vn 0.088979 0.117231 0.989111
vn -0.238348 0.907538 0.345783
vn -0.238348 0.907538 0.345782
vn -0.238348 0.907538 0.345782
vn -0.238348 0.907538 0.345783
vn -0.064443 0.803935 0.591215
vn -0.064443 0.803935 0.591215
vn -0.064443 0.803935 0.591215
vn -0.064443 0.803935 0.591215
vn -0.209758 0.850647 0.482081
vn -0.209758 0.850647 0.482081
vn -0.209758 0.850647 0.482081
vn -0.209758 0.850647 0.482081
vn -0.320268 -0.061876 -0.945304
vn -0.320268 -0.061876 -0.945304
vn -0.320268 -0.061876 -0.945304
vn -0.320268 -0.061876 -0.945304
vn -0.437080 0.115456 -0.891982
vn -0.437080 0.115456 -0.891982
vn -0.437080 0.115456 -0.891982
vn -0.437080 0.115456 -0.891982
vn -0.486618 0.225095 -0.844118
vn -0.486618 0.225095 -0.844118
vn -0.486618 0.225095 -0.844118
vn -0.486618 0.225095 -0.844118
vn -0.047283 -0.998862 -0.006303
vn -0.047283 -0.998862 -0.006303
vn -0.047283 -0.998862 -0.006303
vn -0.047283 -0.998862 -0.006303
vn -0.075692 -0.997130 0.001787
vn -0.075692 -0.997130 0.001787
vn -0.075692 -0.997130 0.001787
vn -0.075692 -0.997130 0.001787
vn -0.056377 -0.997898 -0.031959
vn -0.056377 -0.997898 -0.031959
vn -0.056377 -0.997898 -0.031959
vn -0.056377 -0.997898 -0.031959
vn 0.931606 0.324309 0.164119
vn 0.931606 0.324309 0.164119
vn 0.931606 0.324309 0.164119
vn 0.931606 0.324309 0.164119
vn 0.933933 -0.020363 0.356869
vn 0.933933 -0.020363 0.356869
vn 0.933933 -0.020363 0.356869
vn 0.933933 -0.020363 0.356869
vn 0.736085 -0.009061 0.676828
vn 0.736085 -0.009061 0.676828
vn 0.736085 -0.009061 0.676828
vn 0.736085 -0.009061 0.676828
vn -0.988042 -0.019183 -0.152990
vn -0.988042 -0.019183 -0.152990
vn -0.988042 -0.019183 -0.152990
vn -0.988042 -0.019183 -0.152990
vn -0.983275 -0.049945 0.175144
vn -0.983275 -0.049945 0.175144
vn -0.983275 -0.049945 0.175144
vn -0.983275 -0.049945 0.175144
vn -0.898934 0.391884 0.195818
vn -0.898934 0.391884 0.195818
vn -0.898934 0.391883 0.195818
vn -0.898934 0.391883 0.195818
vn 0.122215 0.373215 0.919660
vn 0.122214 0.373215 0.919660
vn 0.122215 0.373215 0.919660
vn 0.122215 0.373215 0.919660
vn 0.237389 0.295498 0.925380
vn 0.237389 0.295498 0.925380
vn 0.237389 0.295498 0.925380
vn 0.237389 0.295498 0.925380
vn 0.412501 0.214406 0.885366
vn 0.412501 0.214406 0.885366
vn 0.412501 0.214406 0.885366
vn 0.412501 0.214406 0.885366
vn 0.046916 -0.046606 0.997811
vn 0.046916 -0.046606 0.997811
vn 0.046916 -0.046606 0.997811
vn 0.046916 -0.046606 0.997811
vn 0.219690 0.079916 0.972291
vn 0.219690 0.079916 0.972291
vn 0.219690 0.079916 0.972291
vn 0.219690 0.079916 0.972291
vn 0.462366 0.317459 0.827912
vn 0.462366 0.317459 0.827912
vn 0.462366 0.317459 0.827912
vn 0.462366 0.317459 0.827912
vn -0.010031 0.266646 0.963742
vn -0.010031 0.266646 0.963742
vn -0.010031 0.266646 0.963742
vn -0.010031 0.266646 0.963742
vn -0.010209 0.504090 0.863591
vn -0.010209 0.504090 0.863591
vn -0.010209 0.504090 0.863591
vn -0.010209 0.504090 0.863591
vn 0.073701 0.453959 0.887969
vn 0.073701 0.453960 0.887969
vn 0.073701 0.453960 0.887969
vn 0.073701 0.453960 0.887969
vn 0.370975 0.662013 0.651242
vn 0.370975 0.662013 0.651242
vn 0.370975 0.662013 0.651242
vn 0.370975 0.662013 0.651242
vn 0.482096 0.715429 0.505711
vn 0.482096 0.715429 0.505711
vn 0.482096 0.715429 0.505711
vn 0.482096 0.715429 0.505711
vn 0.277162 0.779588 0.561626
vn 0.277162 0.779588 0.561626
vn 0.277162 0.779588 0.561626
vn 0.277162 0.779588 0.561626
vn 0.511049 0.697278 -0.502626
vn 0.511049 0.697278 -0.502626
vn 0.511049 0.697278 -0.502626
vn 0.511049 0.697278 -0.502626
vn 0.455599 0.731939 -0.506651
vn 0.455599 0.731939 -0.506651
vn 0.455599 0.731939 -0.506651
vn 0.455599 0.731939 -0.506651
vn 0.354002 0.889091 -0.290172
vn 0.354002 0.889091 -0.290172
vn 0.354002 0.889091 -0.290172
vn 0.354002 0.889091 -0.290172
vn -0.398467 0.843457 -0.360283
vn -0.398467 0.843457 -0.360283
vn -0.398467 0.843457 -0.360283
vn -0.398467 0.843457 -0.360283
vn -0.497012 0.767159 -0.405520
vn -0.497012 0.767159 -0.405520
vn -0.497012 0.767159 -0.405520
vn -0.497012 0.767159 -0.405520
vn -0.321076 0.900811 -0.292317
vn -0.321076 0.900811 -0.292317
vn -0.321076 0.900811 -0.292317
vn -0.321076 0.900811 -0.292317
vn 0.509130 0.293103 -0.809245
vn 0.509130 0.293103 -0.809245
vn 0.509130 0.293103 -0.809245
vn 0.509130 0.293103 -0.809245
vn 0.543434 0.531331 -0.649897
vn 0.543434 0.531331 -0.649897
vn 0.543434 0.531331 -0.649897
vn 0.543434 0.531331 -0.649897
vn 0.060209 0.348295 -0.935449
vn 0.060209 0.348295 -0.935449
vn 0.060209 0.348295 -0.935449
vn 0.060209 0.348295 -0.935449
vn 0.173057 -0.198522 -0.964697
vn 0.173057 -0.198522 -0.964697
vn 0.173057 -0.198522 -0.964697
vn 0.173057 -0.198522 -0.964697
vn -0.118891 -0.240736 -0.963281
vn -0.118891 -0.240736 -0.963282
vn -0.118891 -0.240736 -0.963281
vn -0.118891 -0.240736 -0.963281
vn -0.147238 -0.064634 -0.986987
vn -0.147238 -0.064634 -0.986987
vn -0.147238 -0.064634 -0.986987
vn -0.147238 -0.064634 -0.986987
vn -0.036503 0.120601 -0.992030
vn -0.036503 0.120601 -0.992030
vn -0.036503 0.120601 -0.992030
vn -0.036503 0.120601 -0.992030
vn -0.095026 0.239830 -0.966153
vn -0.095026 0.239830 -0.966153
vn -0.095026 0.239830 -0.966153
vn -0.095026 0.239830 -0.966153
vn -0.355212 0.103348 -0.929055
vn -0.355212 0.103348 -0.929055
vn -0.355212 0.103348 -0.929055
vn -0.355212 0.103348 -0.929055
vn 0.002387 -0.999995 0.001950
vn 0.002387 -0.999995 0.001950
vn 0.002387 -0.999995 0.001950
vn 0.002387 -0.999995 0.001950
vn 0.005138 -0.999953 -0.008184
vn 0.005138 -0.999953 -0.008184
vn 0.005138 -0.999953 -0.008184
vn 0.005138 -0.999953 -0.008184
vn -0.007153 -0.999920 -0.010447
vn -0.007153 -0.999920 -0.010447
vn -0.007153 -0.999920 -0.010447
vn -0.007153 -0.999920 -0.010447
vn -0.018039 -0.999693 -0.016976
vn -0.018039 -0.999693 -0.016976
vn -0.018039 -0.999693 -0.016976
vn -0.018039 -0.999693 -0.016976
vn -0.011447 -0.999917 -0.005978
vn -0.011447 -0.999917 -0.005978
vn -0.011447 -0.999917 -0.005978
vn -0.011447 -0.999917 -0.005978
vn -0.004796 -0.999972 -0.005777
vn -0.004796 -0.999972 -0.005777
vn -0.004796 -0.999972 -0.005777
vn -0.004796 -0.999972 -0.005777
vn -0.000803 -0.999994 -0.003317
vn -0.000803 -0.999994 -0.003317
vn -0.000803 -0.999994 -0.003317
vn -0.000803 -0.999994 -0.003317
vn -0.006726 -0.998642 -0.051670
vn -0.006726 -0.998642 -0.051670
vn -0.006726 -0.998642 -0.051670
vn -0.006726 -0.998642 -0.051670
vn -0.021828 -0.999466 -0.024320
vn -0.021828 -0.999466 -0.024320
vn -0.021828 -0.999466 -0.024320
vn -0.021828 -0.999466 -0.024320
vn 0.952719 -0.224133 -0.205162
vn 0.952719 -0.224133 -0.205162
vn 0.952719 -0.224133 -0.205162
vn 0.952719 -0.224133 -0.205162
vn 0.882690 0.173780 -0.436646
vn 0.882690 0.173780 -0.436646
vn 0.882690 0.173780 -0.436646
vn 0.882690 0.173780 -0.436646
vn 0.988656 -0.122317 0.087169
vn 0.988656 -0.122317 0.087169
vn 0.988656 -0.122317 0.087169
vn 0.988656 -0.122317 0.087169
vn 0.809957 0.305464 -0.500661
vn 0.809957 0.305464 -0.500661
vn 0.809957 0.305464 -0.500661
vn 0.809957 0.305464 -0.500661
vn 0.858883 0.336699 -0.385946
vn 0.858883 0.336699 -0.385946
vn 0.858883 0.336699 -0.385946
vn 0.858883 0.336699 -0.385946
vn 0.903539 0.391347 -0.174542
vn 0.903539 0.391347 -0.174542
vn 0.903539 0.391347 -0.174542
vn 0.903539 0.391347 -0.174542
vn 0.845691 -0.077852 0.527964
vn 0.845691 -0.077852 0.527964
vn 0.845691 -0.077852 0.527964
vn 0.845691 -0.077852 0.527964
vn 0.775947 0.115161 0.620197
vn 0.775947 0.115161 0.620197
vn 0.775947 0.115161 0.620197
vn 0.775947 0.115161 0.620197
vn 0.676547 0.076224 0.732444
vn 0.676547 0.076224 0.732444
vn 0.676547 0.076224 0.732444
vn 0.676547 0.076224 0.732444
vn -0.998766 0.046400 -0.017708
vn -0.998766 0.046400 -0.017708
vn -0.998766 0.046400 -0.017708
vn -0.998766 0.046400 -0.017708
vn -0.984732 0.159499 -0.069732
vn -0.984732 0.159499 -0.069732
vn -0.984732 0.159499 -0.069732
vn -0.984732 0.159499 -0.069732
vn -0.920857 0.244198 0.303957
vn -0.920857 0.244198 0.303957
vn -0.920857 0.244198 0.303957
vn -0.920857 0.244198 0.303957
vn -0.992321 0.018820 0.122248
vn -0.992321 0.018820 0.122248
vn -0.992321 0.018820 0.122248
vn -0.992321 0.018820 0.122248
vn -0.911154 -0.004506 0.412042
vn -0.911154 -0.004506 0.412042
vn -0.911154 -0.004506 0.412042
vn -0.911154 -0.004506 0.412042
vn -0.912868 0.285037 0.292277
vn -0.912868 0.285037 0.292277
vn -0.912868 0.285037 0.292277
vn -0.912868 0.285037 0.292277
vn -0.973802 -0.065725 -0.217692
vn -0.973802 -0.065725 -0.217692
vn -0.973802 -0.065725 -0.217692
vn -0.973802 -0.065725 -0.217692
vn -0.866789 0.494482 -0.064536
vn -0.866789 0.494482 -0.064536
vn -0.866789 0.494482 -0.064536
vn -0.866789 0.494482 -0.064536
vn -0.946517 0.314877 -0.070414
vn -0.946517 0.314877 -0.070414
vn -0.946517 0.314877 -0.070414
vn -0.946517 0.314877 -0.070414
s off
g pCube2
usemtl initialShadingGroup
f 31/52/1 13/20/2 28/48/3 27/47/4
f 36/58/5 17/26/6 33/55/7 32/53/8
f 41/64/9 21/32/10 38/61/11 37/59/12
f 46/70/13 24/38/14 43/67/15 42/65/16
f 51/76/17 11/18/18 48/72/19 47/71/20
f 55/82/21 21/46/22 53/78/23 52/77/24
f 30/51/25 10/16/26 57/84/27 56/83/28
f 58/86/29 11/18/30 60/88/31 59/87/32
f 62/90/33 12/19/34 34/56/35 63/91/36
f 35/57/37 12/19/38 61/89/39 65/93/40
f 67/96/41 15/22/42 69/98/43 68/97/44
f 71/101/45 16/24/46 39/62/47 72/102/48
f 40/63/49 16/24/50 70/100/51 74/105/52
f 76/108/53 19/28/54 78/110/55 77/109/56
f 80/113/57 20/30/58 44/68/59 81/114/60
f 45/69/61 20/30/62 79/112/63 82/116/64
f 84/119/65 23/34/66 49/121/67 85/120/68
f 86/123/69 10/36/70 29/125/71 87/124/72
f 50/75/73 23/40/74 83/129/75 89/128/76
f 90/131/77 19/41/78 75/133/79 91/132/80
f 92/135/81 15/42/82 66/137/83 93/136/84
f 54/81/85 24/44/86 88/139/87 94/138/88
f 95/140/89 13/20/90 64/92/91 96/141/92
f 97/143/93 17/45/94 73/145/95 98/144/96
f 28/48/97 1/1/98 29/49/99 27/47/100
f 29/49/101 10/16/102 30/51/103 27/47/104
f 30/51/105 9/15/106 31/52/107 27/47/108
f 33/55/109 3/3/110 34/56/111 32/53/112
f 34/56/113 12/19/114 35/57/115 32/53/116
f 35/57/117 14/21/118 36/58/119 32/53/120
f 38/61/121 5/5/122 39/62/123 37/59/124
f 39/62/125 16/24/126 40/63/127 37/59/128
f 40/63/129 18/27/130 41/64/131 37/59/132
f 43/67/133 7/7/134 44/68/135 42/65/136
f 44/68/137 20/30/138 45/69/139 42/65/140
f 45/69/141 22/33/142 46/70/143 42/65/144
f 48/72/145 2/2/146 49/74/147 47/71/148
f 49/74/149 23/40/150 50/75/151 47/71/152
f 50/75/153 25/39/154 51/76/155 47/71/156
f 53/78/157 7/13/158 43/80/159 52/77/160
f 43/80/161 24/44/162 54/81/163 52/77/164
f 54/81/165 26/43/166 55/82/167 52/77/168
f 57/84/169 2/2/170 48/72/171 56/83/172
f 48/72/173 11/18/174 58/86/175 56/83/176
f 58/86/177 9/15/178 30/51/179 56/83/180
f 60/88/181 4/4/182 61/89/183 59/87/184
f 61/89/185 12/19/186 62/90/187 59/87/188
f 62/90/189 9/15/190 58/86/191 59/87/192
f 34/56/193 3/3/194 64/92/195 63/91/196
f 64/92/197 13/20/198 31/52/199 63/91/200
f 31/52/201 9/15/202 62/90/203 63/91/204
f 61/89/205 4/4/206 66/94/207 65/93/208
f 66/94/209 15/22/210 67/96/211 65/93/212
f 67/96/213 14/21/214 35/57/215 65/93/216
f 69/98/217 6/6/218 70/100/219 68/97/220
f 70/100/221 16/24/222 71/101/223 68/97/224
f 71/101/225 14/21/226 67/96/227 68/97/228
f 39/62/229 5/5/230 73/104/231 72/102/232
f 73/104/233 17/26/234 36/58/235 72/102/236
f 36/58/237 14/21/238 71/101/239 72/102/240
f 70/100/241 6/6/242 75/106/243 74/105/244
f 75/106/245 19/28/246 76/108/247 74/105/248
f 76/108/249 18/27/250 40/63/251 74/105/252
f 78/110/253 8/8/254 79/112/255 77/109/256
f 79/112/257 20/30/258 80/113/259 77/109/260
f 80/113/261 18/27/262 76/108/263 77/109/264
f 44/68/265 7/7/266 53/115/267 81/114/268
f 53/115/269 21/32/270 41/64/271 81/114/272
f 41/64/273 18/27/274 80/113/275 81/114/276
f 79/112/277 8/8/278 83/117/279 82/116/280
f 83/117/281 23/34/282 84/119/283 82/116/284
f 84/119/285 22/33/286 45/69/287 82/116/288
f 49/121/289 2/10/290 57/122/291 85/120/292
f 57/122/293 10/36/294 86/123/295 85/120/296
f 86/123/297 22/33/298 84/119/299 85/120/300
f 29/125/301 1/9/302 88/127/303 87/124/304
f 88/127/305 24/38/306 46/70/307 87/124/308
f 46/70/309 22/33/310 86/123/311 87/124/312
f 83/129/313 8/11/314 78/130/315 89/128/316
f 78/130/317 19/41/318 90/131/319 89/128/320
f 90/131/321 25/39/322 50/75/323 89/128/324
f 75/133/325 6/12/326 69/134/327 91/132/328
f 69/134/329 15/42/330 92/135/331 91/132/332
f 92/135/333 25/39/334 90/131/335 91/132/336
f 66/137/337 4/4/338 60/88/339 93/136/340
f 60/88/341 11/18/342 51/76/343 93/136/344
f 51/76/345 25/39/346 92/135/347 93/136/348
f 88/139/349 1/1/350 28/48/351 94/138/352
f 28/48/353 13/20/354 95/140/355 94/138/356
f 95/140/357 26/43/358 54/81/359 94/138/360
f 64/92/361 3/3/362 33/142/363 96/141/364
f 33/142/365 17/45/366 97/143/367 96/141/368
f 97/143/369 26/43/370 95/140/371 96/141/372
f 73/145/373 5/14/374 38/146/375 98/144/376
f 38/146/377 21/46/378 55/82/379 98/144/380
f 55/82/381 26/43/382 97/143/383 98/144/384
